<svg width="128" height="128" viewBox="0 0 128 128" fill="none" xmlns="http://www.w3.org/2000/svg">
<rect width="128" height="128" rx="5" fill="#C3E0CF"/>
<rect x="21" y="21" width="86" height="86" rx="6" stroke="#FFFDF8" stroke-width="4"/>
<line x1="45" y1="22" x2="45" y2="106" stroke="#FFFDF8" stroke-width="4"/>
<line x1="22" y1="41" x2="106" y2="41" stroke="#FFFDF8" stroke-width="4"/>
<line x1="57" y1="49" x2="65" y2="49" stroke="white" stroke-width="4" stroke-linecap="round"/>
<line x1="71" y1="49" x2="73" y2="49" stroke="white" stroke-width="4" stroke-linecap="round"/>
<line x1="79" y1="49" x2="95" y2="49" stroke="white" stroke-width="4" stroke-linecap="round"/>
<line x1="57" y1="56" x2="65" y2="56" stroke="white" stroke-width="4" stroke-linecap="round"/>
<line x1="71" y1="56" x2="76" y2="56" stroke="white" stroke-width="4" stroke-linecap="round"/>
<line x1="82" y1="56" x2="95" y2="56" stroke="white" stroke-width="4" stroke-linecap="round"/>
<line x1="57" y1="63" x2="73" y2="63" stroke="white" stroke-width="4" stroke-linecap="round"/>
<line x1="71" y1="63" x2="77" y2="63" stroke="white" stroke-width="4" stroke-linecap="round"/>
<line x1="82" y1="63" x2="95" y2="63" stroke="white" stroke-width="4" stroke-linecap="round"/>
<line x1="57" y1="70" x2="65" y2="70" stroke="white" stroke-width="4" stroke-linecap="round"/>
<line x1="71" y1="70" x2="73" y2="70" stroke="white" stroke-width="4" stroke-linecap="round"/>
<line x1="64" y1="70" x2="95" y2="70" stroke="white" stroke-width="4" stroke-linecap="round"/>
<line x1="57" y1="77" x2="67" y2="77" stroke="white" stroke-width="4" stroke-linecap="round"/>
<line x1="73" y1="77" x2="79" y2="77" stroke="white" stroke-width="4" stroke-linecap="round"/>
<line x1="85" y1="77" x2="95" y2="77" stroke="white" stroke-width="4" stroke-linecap="round"/>
</svg>
